<svg viewboxsize="575" data-root-id="9987684169515" xmlns="http://www.w3.org/2000/svg"
    xmlns:xlink="http://www.w3.org/1999/xlink" id="Layer_2"
    viewBox="-0.0024995803833007812 0 301.4049987792969 270.760009765625" height="56.13314597378712"
    width="62.48638264183859" y="338.467" x="57.5728" preserveAspectRatio="xMinYMin" zoom="1"
    data-layer-role="icon" style="transform: rotate(180deg);">
    <linearGradient id="linear-gradient" x1="150.7" y1="270.75" x2="150.7" y2="0"
        gradientUnits="userSpaceOnUse" name="Layer %{number}" zoom="1" data-layer-id="8234204169515">
        <stop offset="0" stop-color="#f19130"></stop>
        <stop offset="1" stop-color="#f1b330"></stop>
    </linearGradient>
    <path id="Layer_1-2" dataName="Layer_1" class="cls-1"
        d="M296.43,18.35c-6.63-11.49-18.51-18.35-31.78-18.35H36.75C23.49,0,11.61,6.86,4.97,18.35c-6.63,11.49-6.63,25.21,0,36.69l113.95,197.37c6.63,11.49,18.51,18.35,31.78,18.35s25.14-6.86,31.78-18.35l113.95-197.37c6.63-11.49,6.63-25.21,0-36.69ZM188.87,212.67c-4.47,1.5-10.82-.52-16.14-5.11l-87.15-79.39,97.3,71.88.09.06c3.41,2.24,6.92,3.41,10.01,3.41.64,0,1.25-.06,1.85-.16l-1.96,6.19c-.98,1.49-2.32,2.56-4,3.12ZM214.53,17.05c2.35,1.78,3.4,5.48,2.72,9.75l-11.1,98.14V21.62c0-1.02-.22-1.99-.62-2.87l7.64-2.43c.48.17.93.42,1.36.74ZM195.53,199.02c-2.5,1.16-6.45.31-10.32-2.22l-82.43-60.89,92.97,53.68c.64.37,1.32.62,2.01.77l-1.85,8.45c-.13.08-.25.15-.39.22ZM47.31,91.29c.46-2.95,3.06-5.76,6.69-7.19l94.26-41.07-92.77,53.56c-.93.54-1.69,1.26-2.26,2.11l-5.85-5.33c-.16-.66-.19-1.36-.07-2.08ZM202.15,21.62v138.67l-2.34,20.71-1.19,5.44c-.3-.06-.59-.16-.87-.32l-123.59-71.36-17.45-12.89-.44-.4c.24-.58.65-1.09,1.22-1.42L180.89,28.81l18.95-8.26,1.8-.57c.32.48.52,1.03.52,1.64ZM52.47,80.41c-4.63,1.82-7.98,5.39-8.95,9.44l-2.18-1.98c-2.4-2.86-3.18-6.29-2.19-9.68,1.32-4.53,5.56-8.29,11.37-10.07l112.09-35.7-110.14,47.99ZM221.22,27.33c.81-5.14-.39-9.71-3.24-12.56l1.92-.61c3.8-.84,7.06-.04,9.43,2.33,3.29,3.28,4.45,9.22,3.05,15.51l-24.23,110.83,13.07-115.49ZM49.33,64.3c-7.08,2.17-12.32,6.94-14.02,12.77-.37,1.28-.55,2.58-.56,3.87l-1.6-1.75c-3.5-4.75-4.34-10.12-2.38-15.12,2.37-6.03,8.43-10.49,16.29-11.95l130.97-28.81L49.33,64.3ZM170.08,210.55c4.95,4.28,10.59,6.62,15.59,6.62,1.57,0,3.08-.23,4.48-.7.21-.07.41-.17.61-.25l-.19.61c-2.45,6.14-7.1,8.21-10.57,8.87-6.66,1.26-14.44-1.65-19.82-7.41l-91-99.64,100.89,91.9ZM236.29,32.86c1.73-7.72.19-14.9-4.13-19.2-.69-.69-1.45-1.26-2.24-1.77l1.16-.25c6-.95,11.11.66,14.4,4.52,4.11,4.81,4.85,12.49,2.04,21.07l-39.23,123.69,27.99-128.05ZM46.26,48.19c-9.16,1.7-16.34,7.08-19.22,14.41-1.16,2.96-1.52,6.07-1.14,9.14l-.96-1.25c-4-6.23-4.35-14.1-.93-21.06,3.75-7.64,11.04-12.62,19.49-13.34L194.53,15.58,46.26,48.19ZM157.24,220.99c5.31,5.68,12.69,8.98,19.64,8.98,1.31,0,2.6-.12,3.86-.36,2.32-.44,4.44-1.27,6.31-2.44l-.32.77c-3.02,6.45-8.62,10.45-15.78,11.26-8.58.98-17.75-3.04-23.36-10.21L53.49,107.39l103.75,113.61ZM251.33,38.45c3.25-9.92,2.23-18.99-2.81-24.89-1.66-1.94-3.7-3.44-6.02-4.48,7.86-.97,14.73,1.56,18.88,6.97,5.05,6.59,5.53,16.22,1.29,26.43l-56,136.8,44.66-140.83ZM43.11,32.12c-9.85.85-18.33,6.66-22.7,15.55-2.56,5.22-3.32,10.87-2.32,16.21l-1.4-2.1c-5.04-8.48-5.28-18.62-.66-27.12,4.76-8.76,13.76-14.22,24.13-14.61l171.8-10.87L43.11,32.12ZM144.45,231.45c5.87,7.52,14.79,11.91,23.85,11.91,1.04,0,2.08-.06,3.12-.18,4.44-.5,8.44-2.11,11.77-4.63l-.34.68c-3.91,8.13-11.25,13.23-20.13,13.99-10.52.89-21.16-4.3-27.71-13.52L38.43,94.47l106.01,136.99ZM266.36,44c4.79-11.56,4.13-22.64-1.82-30.39-2.49-3.24-5.75-5.63-9.53-7.08,9.03-.01,16.53,3.59,21.23,10.25,5.72,8.11,6.28,19.42,1.54,31.04l-74.37,149.95,62.95-153.76ZM8.44,20.35C14.35,10.11,24.93,4,36.75,4h193.72L39.97,16.05c-11.74.44-22,6.68-27.44,16.69-3.81,7.01-4.72,14.97-2.81,22.5l-1.27-2.21c-5.91-10.24-5.91-22.46,0-32.69ZM150.7,266.75c-11.82,0-22.4-6.11-28.31-16.35L23.95,79.9l107.76,162.07c6.85,9.63,17.63,15.35,28.66,15.35.89,0,1.79-.04,2.69-.11,5.94-.51,11.28-2.68,15.61-6.23-5.97,9.88-16.36,15.77-27.96,15.77ZM292.97,53.04l-94.41,163.53,82.85-167.04.06-.13c5.3-12.94,4.59-25.67-1.94-34.93-3.54-5.02-8.57-8.59-14.52-10.46,11.68.12,22.12,6.2,27.97,16.34,5.91,10.24,5.91,22.46,0,32.69Z"
        name="Layer %{number}" zoom="1" data-layer-id="3404405669515" style="fill: #fff;"></path>
</svg>